<svg xmlns="http://www.w3.org/2000/svg" id="bigplay-gradient.fw-Page%201" width="100" height="200" x="0" y="0" version="1.1" viewBox="0 0 100 200" xml:space="preserve" style="background-color:#ffffff00"><defs><radialGradient id="gradient1" cx="50%" cy="50%" r="50%"><stop offset="70%" stop-color="#222" stop-opacity="0"/><stop offset="70.202%" stop-color="#222" stop-opacity=".012"/><stop offset="85%" stop-color="#333" stop-opacity="1"/><stop offset="100%" stop-color="#333" stop-opacity="0"/></radialGradient><radialGradient id="gradient2" cx="50%" cy="50%" r="50%"><stop offset="70%" stop-color="#bbb" stop-opacity="0"/><stop offset="70.202%" stop-color="#bbb" stop-opacity=".012"/><stop offset="85%" stop-color="#bbb" stop-opacity="1"/><stop offset="100%" stop-color="#bbb" stop-opacity="0"/></radialGradient><filter id="filter1" width="300%" height="300%" x="-100%" y="-100%"><feColorMatrix in="SourceGraphic" result="out" type="matrix" values="0 0 0 0 0 0 0 0 0 0 0 0 0 0 0 0 0 0 0.251 0"/><feMorphology in="out" operator="dilate" radius="3" result="out"/><feGaussianBlur in="out" result="out" stdDeviation="1.5"/><feBlend in="SourceGraphic" in2="out" mode="normal" result="Glow1"/></filter><filter id="filter2" width="300%" height="300%" x="-100%" y="-100%"><feColorMatrix in="SourceGraphic" result="out" type="matrix" values="0 0 0 0.8667 0 0 0 0 0.8667 0 0 0 0 0.8667 0 0 0 0 0.251 0"/><feMorphology in="out" operator="dilate" radius="3" result="out"/><feGaussianBlur in="out" result="out" stdDeviation="1.5"/><feBlend in="SourceGraphic" in2="out" mode="normal" result="Glow2"/></filter></defs><g id="dark%20shadow"><path fill="url(#gradient1)" d="M 22 50 C 22 34.5358 34.5358 22 50 22 C 65.4642 22 78 34.5358 78 50 C 78 65.4642 65.4642 78 50 78 C 34.5358 78 22 65.4642 22 50 ZM 5 50 C 5 74.8531 25.1469 95 50 95 C 74.8531 95 95 74.8531 95 50 C 95 25.1469 74.8531 5 50 5 C 25.1469 5 5 25.1469 5 50 Z"/><path fill="url(#gradient2)" d="M 22 150 C 22 134.5358 34.5358 122 50 122 C 65.4642 122 78 134.5358 78 150 C 78 165.4642 65.4642 178 50 178 C 34.5358 178 22 165.4642 22 150 ZM 5 150 C 5 174.8531 25.1469 195 50 195 C 74.8531 195 95 174.8531 95 150 C 95 125.1469 74.8531 105 50 105 C 25.1469 105 5 125.1469 5 150 Z"/></g><g id="dark"><path id="Polygon" fill="#fff" d="M 72.5 49.5 L 38.75 68.9856 L 38.75 30.0144 L 72.5 49.5 Z" filter="url(#filter1)"/><path id="Ellipse" fill="none" stroke="#fff" stroke-width="5" d="M 13 50.5 C 13 29.7891 29.7891 13 50.5 13 C 71.2109 13 88 29.7891 88 50.5 C 88 71.2109 71.2109 88 50.5 88 C 29.7891 88 13 71.2109 13 50.5 Z"/></g><g id="light"><path id="Polygon2" fill="#fff" d="M 72.5 149.5 L 38.75 168.9856 L 38.75 130.0144 L 72.5 149.5 Z" filter="url(#filter2)"/><path id="Ellipse2" fill="none" stroke="#fff" stroke-width="5" d="M 13 150.5 C 13 129.7891 29.7891 113 50.5 113 C 71.2109 113 88 129.7891 88 150.5 C 88 171.211 71.2109 188 50.5 188 C 29.7891 188 13 171.211 13 150.5 Z"/></g></svg>